<?xml version="1.0" standalone="no"?>
<!DOCTYPE svg PUBLIC "-//W3C//DTD SVG 20010904//EN"
 "http://www.w3.org/TR/2001/REC-SVG-20010904/DTD/svg10.dtd">
<svg version="1.0" xmlns="http://www.w3.org/2000/svg"
 width="133.000000pt" height="133.000000pt" viewBox="0 0 133.000000 133.000000"
 preserveAspectRatio="xMidYMid meet">
<metadata>
Created by potrace 1.14, written by Peter Selinger 2001-2017
</metadata>
<g transform="translate(0.000000,133.000000) scale(0.100000,-0.100000)"
fill="#000000" stroke="none">
<path d="M739 1320 c-41 -12 -77 -39 -83 -66 -4 -13 -12 -24 -19 -25 -6 0 -23
-3 -37 -5 -25 -5 -41 -5 -94 -1 -26 2 -32 -4 -60 -58 -21 -40 -41 -64 -61 -74
-67 -31 -82 -70 -50 -131 l15 -30 -45 -11 c-53 -13 -60 -21 -44 -47 12 -20 6
-57 -8 -49 -5 3 -9 -16 -10 -41 -3 -53 -10 -62 -49 -66 -37 -3 -74 -23 -74
-40 0 -7 11 -23 25 -36 28 -27 33 -60 9 -60 -24 0 -68 -50 -56 -62 7 -7 6 -21
-3 -42 -15 -37 -12 -61 10 -87 27 -29 12 -49 -37 -48 -24 0 -37 3 -30 6 9 3 7
10 -9 24 -28 24 -30 24 -20 -3 4 -13 11 -43 15 -68 6 -39 13 -49 51 -73 29
-19 64 -30 100 -34 30 -3 55 -10 55 -15 0 -16 26 -37 54 -44 19 -4 26 -2 26 9
0 8 6 20 14 27 8 6 16 21 18 33 4 21 5 21 18 -5 11 -23 20 -28 50 -28 24 0 43
7 55 20 10 11 21 17 25 15 5 -3 43 -12 85 -20 98 -18 138 -43 141 -85 4 -47
21 -63 61 -55 25 4 41 1 63 -15 17 -12 35 -18 41 -14 8 5 9 3 4 -6 -6 -10 -4
-12 11 -6 10 4 28 9 38 12 11 2 26 10 33 17 16 15 26 60 12 52 -12 -8 -11 5 4
32 9 16 16 20 27 13 8 -5 20 -10 25 -10 6 1 2 5 -8 11 -29 17 -11 26 42 22 50
-4 77 10 41 22 -30 10 -24 59 8 63 17 3 25 14 33 47 12 46 28 58 66 51 16 -4
30 4 48 27 14 18 30 37 35 44 7 8 5 17 -6 27 -8 9 -12 16 -7 16 4 1 -8 9 -27
18 -43 21 -48 47 -20 101 21 42 25 111 5 111 -5 0 -3 5 6 10 25 15 32 58 14
86 -8 13 -15 32 -15 42 0 20 -29 52 -47 52 -26 0 -32 64 -8 89 19 20 6 47 -56
111 -47 49 -61 54 -21 8 8 -10 11 -18 6 -18 -5 0 -17 12 -25 26 -14 23 -14 32
-3 69 14 49 9 57 -58 88 -28 12 -38 13 -38 4 0 -9 -2 -9 -8 0 -10 16 -47 29
-107 38 -27 4 -57 12 -65 19 -21 18 -51 24 -81 16z"/>
<path d="M350 1109 c24 -5 48 -5 52 -1 4 4 -16 8 -45 9 l-52 1 45 -9z"/>
<path d="M267 1068 c2 -5 10 -8 18 -8 8 0 16 3 18 8 3 4 -5 7 -18 7 -13 0 -21
-3 -18 -7z"/>
<path d="M210 820 c-9 -6 -10 -10 -3 -10 6 0 15 5 18 10 8 12 4 12 -15 0z"/>
<path d="M180 773 c0 -5 6 -15 13 -22 10 -11 7 -12 -13 -6 -19 5 -21 4 -10 -4
35 -24 57 2 25 29 -8 7 -15 8 -15 3z"/>
<path d="M1263 530 c16 -5 35 -17 44 -27 13 -17 13 -17 4 3 -11 23 -32 35 -59
33 -9 0 -4 -5 11 -9z"/>
<path d="M1261 323 c-1 -21 33 -42 46 -29 4 3 -1 6 -11 6 -9 0 -21 10 -26 23
l-9 22 0 -22z"/>
<path d="M1207 229 c7 -7 15 -10 18 -7 3 3 -2 9 -12 12 -14 6 -15 5 -6 -5z"/>
<path d="M1170 180 c0 -5 5 -10 11 -10 5 0 7 5 4 10 -3 6 -8 10 -11 10 -2 0
-4 -4 -4 -10z"/>
</g>
</svg>
